<svg xmlns="http://www.w3.org/2000/svg" xmlns:xlink="http://www.w3.org/1999/xlink" id="logo" viewBox="0 0 664.98 130" width="50"  height="9.774730067069687" ><defs><style>.cls-1{fill:#067dff;}.cls-2{fill:#111;}.cls-3{fill:url(#Gradiente_sem_nome_34);}</style><linearGradient id="Gradiente_sem_nome_34" x1="63.16" y1=".91" x2="154.42" y2="92.17" gradientTransform="matrix(1, 0, 0, 1, 0, 0)" gradientUnits="userSpaceOnUse"><stop offset="0" stop-color="#067dff"/><stop offset="1" stop-color="#75ff2c"/></linearGradient></defs><path class="cls-3" d="M120.69,121.91c-.23,0-.46,0-.69-.02-2.79-.2-5.35-1.59-7.02-3.83l-21.74-28.99h-26.3c-11.95,0-21.68-9.72-21.68-21.68V29.77c0-11.96,9.73-21.68,21.68-21.68h91.68c12.08,0,21.9,9.83,21.9,21.9s-9.83,21.9-21.9,21.9H77.21c-1.34,0-1.95,.93-2.16,1.33s-.58,1.45,.23,2.52l19.57,26.1h46.63c3.97,0,7.38,2.28,8.9,5.95,1.52,3.67,.72,7.69-2.09,10.5l-20.79,20.8c-1.82,1.81-4.27,2.82-6.81,2.82Zm-20.42-32.84l18.49,24.65c.57,.77,1.35,.93,1.76,.96,.41,.02,1.2-.02,1.88-.7l20.79-20.79c1.03-1.03,.71-2.18,.52-2.63-.19-.45-.77-1.49-2.22-1.49h-41.21ZM64.94,15.31c-7.97,0-14.45,6.48-14.45,14.45v37.62c0,7.97,6.48,14.45,14.45,14.45h20.88l-16.32-21.76c-2.2-2.94-2.55-6.81-.91-10.09,1.64-3.29,4.95-5.33,8.62-5.33h79.41c8.09,0,14.68-6.58,14.68-14.68s-6.58-14.68-14.68-14.68H64.94Z"/><g><path class="cls-2" d="M241.43,50.38c5.93,0,9.4,1.63,10.43,4.89,.52,1.63,.77,3.78,.77,6.44s-.28,4.79-.84,6.38c-.56,1.59-1.44,2.73-2.64,3.41-1.8,1.03-4.42,1.55-7.86,1.55l-8.25-.52v33.92c0,3.27-.41,5.69-1.22,7.28-.82,1.59-2.06,2.64-3.74,3.15-1.67,.52-3.84,.77-6.51,.77s-4.79-.28-6.38-.84c-1.59-.56-2.73-1.46-3.41-2.71-.69-1.24-1.1-2.38-1.23-3.41-.13-1.03-.19-2.53-.19-4.51v-33.54h-4.64c-2.23-.17-3.82-.69-4.77-1.55-1.63-1.63-2.45-4.77-2.45-9.4,0-7.04,2.53-10.56,7.6-10.56h4.25v-6.83c0-6.61,2.36-12.6,7.09-17.97,4.72-5.37,11.55-8.05,20.48-8.05,1.97,0,3.46,.06,4.44,.19,.99,.13,2.13,.54,3.41,1.23,2.32,1.12,3.48,4.42,3.48,9.92,0,4.12-.73,7.09-2.19,8.89-1.2,1.37-3.09,2.15-5.67,2.32h-3.61c-3.18,0-4.77,1.08-4.77,3.22v7.09l8.37-.77Zm17.91-20.74c0-1.97,.06-3.46,.19-4.44,.13-.99,.53-2.13,1.22-3.41,1.12-2.32,4.42-3.48,9.92-3.48s8.5,1.16,9.79,3.48c.69,1.29,1.1,2.45,1.23,3.48,.13,1.03,.19,2.53,.19,4.51v59.07c0,3.09,.26,5.05,.77,5.86s1.65,1.22,3.41,1.22,2.94,.06,3.54,.19c.6,.13,1.37,.5,2.32,1.1,1.63,1.12,2.45,4.17,2.45,9.15,0,5.41-.82,8.72-2.45,9.92-2.32,1.55-7.69,1.8-16.1,.77-6.61-.86-10.95-3.05-13.01-6.57-2.32-4.21-3.48-10.9-3.48-20.1V29.63Z"/><path class="cls-2" d="M408.9,117.88c-8.68,0-15.87-3.28-21.58-9.85-5.71-6.57-8.57-14.58-8.57-24.03v-23.65c0-2.06,.06-3.56,.19-4.51,.13-.94,.49-2.06,1.1-3.35,1.2-2.32,4.55-3.48,10.05-3.48,6.01,0,9.53,1.63,10.56,4.89,.52,1.37,.77,3.57,.77,6.57v23.65c0,3.52,1.01,6.27,3.03,8.25,2.02,1.98,4.72,2.96,8.12,2.96s6.14-1.03,8.24-3.09c2.1-2.06,3.16-4.77,3.16-8.12v-23.91c0-1.97,.06-3.46,.19-4.44,.13-.99,.53-2.13,1.22-3.41,1.12-2.23,4.42-3.35,9.92-3.35s8.72,1.16,9.92,3.48c.6,1.29,.97,2.43,1.1,3.41,.13,.99,.19,2.47,.19,4.44v46.71c0,1.89-.06,3.33-.19,4.32-.13,.99-.54,2.08-1.22,3.28-1.29,2.23-4.6,3.35-9.92,3.35s-8.46-1.03-9.66-3.09c-.86-1.46-1.29-3.22-1.29-5.28-.34,.6-1.12,1.46-2.32,2.58-1.2,1.12-2.36,2.06-3.48,2.83-2.92,1.89-6.1,2.83-9.53,2.83Z"/><path class="cls-2" d="M334.71,47.65c-19.43,0-35.18,15.75-35.18,35.18s15.75,35.18,35.18,35.18,35.18-15.75,35.18-35.18-15.75-35.18-35.18-35.18Zm0,47.8c-6.97,0-12.62-5.65-12.62-12.62s5.65-12.62,12.62-12.62,12.62,5.65,12.62,12.62-5.65,12.62-12.62,12.62Z"/><g><path class="cls-2" d="M456.82,58.86c0-1.97,.06-3.46,.19-4.44,.13-.99,.49-2.13,1.1-3.41,1.2-2.23,4.55-3.35,10.05-3.35,4.12,0,7.04,.73,8.76,2.19,1.46,1.2,2.23,3.05,2.32,5.54,.08,.86,.13,2.11,.13,3.74v47.34c0,1.98-.06,3.46-.19,4.44-.13,.99-.54,2.13-1.22,3.41-1.12,2.23-4.42,3.35-9.92,3.35s-8.72-1.16-9.92-3.48c-.6-1.29-.97-2.4-1.1-3.35-.13-.94-.19-2.45-.19-4.51V58.86Z"/><circle class="cls-2" cx="468.09" cy="29.83" r="11.27"/></g></g><g><path class="cls-1" d="M586.54,47.65c-19.43,0-35.18,15.75-35.18,35.18s15.75,35.18,35.18,35.18,35.18-15.75,35.18-35.18-15.75-35.18-35.18-35.18Zm0,47.8c-6.97,0-12.62-5.65-12.62-12.62s5.65-12.62,12.62-12.62,12.62,5.65,12.62,12.62-5.65,12.62-12.62,12.62Z"/><g><path class="cls-1" d="M520.2,58.86c0-1.97,.06-3.46,.19-4.44,.13-.99,.49-2.13,1.1-3.41,1.2-2.23,4.55-3.35,10.05-3.35,4.12,0,7.04,.73,8.76,2.19,1.46,1.2,2.23,3.05,2.32,5.54,.08,.86,.13,2.11,.13,3.74v47.34c0,1.98-.06,3.46-.19,4.44-.13,.99-.54,2.13-1.22,3.41-1.12,2.23-4.42,3.35-9.92,3.35s-8.72-1.16-9.92-3.48c-.6-1.29-.97-2.4-1.1-3.35-.13-.94-.19-2.45-.19-4.51V58.86Z"/><circle class="cls-1" cx="531.47" cy="29.83" r="11.27"/></g><circle class="cls-1" cx="499.78" cy="106.73" r="11.27"/></g></svg>